<svg xmlns="http://www.w3.org/2000/svg" viewBox="0 0 2085.01 812.82"><defs><style>.a{fill:none;}.b{fill:#fff;}.c{fill:#fba919;}</style></defs><rect class="a" x="1453.58" y="938.61" width="118.99" height="125.7" transform="translate(-627.01 494.72) rotate(-45)"/><polygon class="a" points="1041.43 153.68 646.1 549.01 823.86 549.01 1130.32 242.56 1041.43 153.68"/><polygon class="a" points="870.06 549.01 1436.77 549.01 1153.41 265.66 870.06 549.01"/><polygon class="a" points="933.98 46.23 431.2 549.01 599.9 549.01 1018.34 130.58 933.98 46.23"/><polygon class="a" points="1176.51 242.56 1482.96 549.01 1651.23 549.01 1260.64 158.43 1176.51 242.56"/><polygon class="b" points="599.9 549.01 646.1 549.01 1041.43 153.68 1064.53 130.58 1148.66 46.45 1237.55 135.33 1153.41 219.47 1130.32 242.56 823.86 549.01 870.06 549.01 1153.41 265.66 1176.51 242.56 1260.64 158.43 1651.23 549.01 1697.42 549.01 1148.63 0.22 1125.53 23.32 1125.57 23.35 1041.43 107.49 1018.34 130.58 599.9 549.01"/><rect class="a" x="1450.47" y="938.61" width="118.99" height="125.7" transform="translate(-627.92 492.52) rotate(-45)"/><polygon class="a" points="1038.32 153.68 642.99 549.01 820.75 549.01 1127.21 242.56 1038.32 153.68"/><polygon class="a" points="866.95 549.01 1433.66 549.01 1150.3 265.66 866.95 549.01"/><polygon class="a" points="930.87 46.23 428.09 549.01 596.8 549.01 1015.23 130.58 930.87 46.23"/><polygon class="a" points="1173.4 242.56 1479.85 549.01 1648.12 549.01 1257.54 158.43 1173.4 242.56"/><polygon class="c" points="1173.4 242.56 1038.32 107.49 930.84 0 907.74 23.1 907.78 23.13 381.9 549.01 428.09 549.01 930.87 46.23 1015.23 130.58 1150.3 265.66 1433.66 549.01 1479.85 549.01 1173.4 242.56"/><path class="b" d="M457.29,1523.15c0,24-16.49,38.11-44.52,38.11H387.31v44H362v-120.9h50.74C440.8,1484.32,457.29,1498.42,457.29,1523.15Zm-25.65-.18c0-12.27-7-18.5-22.71-18.5H387.31v37.19h21.62C424.68,1541.66,431.64,1535.24,431.64,1523Z" transform="translate(-362.03 -868.51)"/><path class="b" d="M590.64,1544.77c0,38.83-22.16,62.28-58.06,62.28s-58.26-23.45-58.26-62.28,22.35-62.28,58.26-62.28S590.64,1505.94,590.64,1544.77Zm-90.12,0c0,26.93,11.72,41.58,32.06,41.58,20.15,0,31.87-14.65,31.87-41.58s-11.72-41.58-31.87-41.58C512.24,1503.19,500.52,1517.84,500.52,1544.77Z" transform="translate(-362.03 -868.51)"/><path class="b" d="M720.89,1541.29v63.93h-18.5l-.55-14.47c-7,10.26-18.69,16.3-35.72,16.3-33.16,0-56.06-22.71-56.06-62.1,0-38.83,22.9-62.46,58.8-62.46,26.2,0,41.95,9.16,51.48,29.67l-23.27,10.08c-3.84-12.82-14.1-19-27.47-19-20.7,0-33.34,14.65-33.34,41.58,0,27.48,11.54,42,33.89,42,16.3,0,28.94-7.88,28.94-24V1560H663.74v-18.68Z" transform="translate(-362.03 -868.51)"/><path class="b" d="M858.82,1544.77c0,38.83-22.16,62.28-58.06,62.28s-58.26-23.45-58.26-62.28,22.35-62.28,58.26-62.28S858.82,1505.94,858.82,1544.77Zm-90.12,0c0,26.93,11.72,41.58,32.06,41.58,20.15,0,31.87-14.65,31.87-41.58s-11.72-41.58-31.87-41.58C780.42,1503.19,768.7,1517.84,768.7,1544.77Z" transform="translate(-362.03 -868.51)"/><path class="b" d="M975.33,1504.65H934.85v100.57H909.57V1504.65H868.9v-20.33H975.33Z" transform="translate(-362.03 -868.51)"/><path class="b" d="M1101.73,1544.77c0,38.83-22.17,62.28-58.07,62.28s-58.25-23.45-58.25-62.28,22.35-62.28,58.25-62.28S1101.73,1505.94,1101.73,1544.77Zm-90.13,0c0,26.93,11.73,41.58,32.06,41.58,20.15,0,31.87-14.65,31.87-41.58s-11.72-41.58-31.87-41.58C1023.33,1503.19,1011.6,1517.84,1011.6,1544.77Z" transform="translate(-362.03 -868.51)"/><path class="b" d="M1176.84,1605.22h-29.13l-35.17-120.9h27.29l23.45,100.93,24.18-100.93h24.18l24.55,100.93,23.44-100.93h26l-35.17,120.9h-28.4l-16.85-66-5.68-28.57h-.37l-5.67,28.57Z" transform="translate(-362.03 -868.51)"/><path class="b" d="M1330.34,1605.22h-25.27v-120.9h25.27Z" transform="translate(-362.03 -868.51)"/><path class="b" d="M1455.09,1584.89v20.33h-93.24v-120.9h90.68v20.33h-65.4v30h51.48v19.41h-51.48v30.78Z" transform="translate(-362.03 -868.51)"/><path class="b" d="M1640.11,1544.77c0,38.65-21.62,60.45-59.54,60.45h-46.71v-120.9h46.71C1618.49,1484.32,1640.11,1506.12,1640.11,1544.77Zm-26.2,0c0-26-11.54-40.3-34.62-40.3h-20.15v80.6h20.15C1602.37,1585.07,1613.91,1570.78,1613.91,1544.77Z" transform="translate(-362.03 -868.51)"/><path class="b" d="M1730.05,1575.73h-46.71l-9.89,29.49h-25.83l44.15-120.9H1722l44.15,120.9h-26.2Zm-6.23-18.69L1712.28,1523l-5.49-18.32h-.37l-5.13,18L1689.75,1557Z" transform="translate(-362.03 -868.51)"/><path class="b" d="M1831.9,1607.05c-35.9,0-58.25-23.45-58.25-62.28s22.53-62.28,57.89-62.28c24.73,0,43.23,10.26,50,31.32l-22.9,9.71c-4-14.65-12.09-20.33-26-20.33-20.15,0-32.79,14.65-32.79,41.58,0,26.74,11.9,41.58,32.24,41.58,14.47,0,24-7,27.84-21.43l23.26,7C1875.87,1595.51,1856.45,1607.05,1831.9,1607.05Z" transform="translate(-362.03 -868.51)"/><path class="b" d="M2008.68,1484.32v120.9H1983.4v-50.93h-53.31v50.93h-25.28v-120.9h25.28V1534h53.31v-49.64Z" transform="translate(-362.03 -868.51)"/><path class="b" d="M2150.46,1544.77c0,38.83-22.16,62.28-58.07,62.28s-58.25-23.45-58.25-62.28,22.35-62.28,58.25-62.28S2150.46,1505.94,2150.46,1544.77Zm-90.13,0c0,26.93,11.73,41.58,32.06,41.58,20.15,0,31.88-14.65,31.88-41.58s-11.73-41.58-31.88-41.58C2072.06,1503.19,2060.33,1517.84,2060.33,1544.77Z" transform="translate(-362.03 -868.51)"/><path class="b" d="M2225.57,1605.22h-29.13l-35.17-120.9h27.3L2212,1585.25l24.18-100.93h24.18l24.55,100.93,23.45-100.93h26l-35.17,120.9h-28.39l-16.86-66-5.68-28.57h-.36l-5.68,28.57Z" transform="translate(-362.03 -868.51)"/><path class="b" d="M2447,1584.89v20.33H2353.8v-120.9h90.67v20.33h-65.39v30h51.47v19.41h-51.47v30.78Z" transform="translate(-362.03 -868.51)"/><polygon class="c" points="133.04 797.51 117.73 812.82 1958.48 812.82 1943.18 797.51 133.04 797.51"/></svg>